<mxfile host="app.diagrams.net" agent="Mozilla/5.0 (Windows NT 10.0; Win64; x64) AppleWebKit/537.36 (KHTML, like Gecko) Chrome/131.0.0.0 Safari/537.36" version="25.0.3">
  <diagram name="Page-1" id="iPAVqo4IfgyTHAS5-9vC">
    <mxGraphModel dx="712" dy="765" grid="1" gridSize="10" guides="1" tooltips="1" connect="1" arrows="1" fold="1" page="1" pageScale="1" pageWidth="850" pageHeight="1100" math="0" shadow="0">
      <root>
        <mxCell id="0" />
        <mxCell id="1" parent="0" />
        <mxCell id="4JpqzVYgigg34PEvqqd3-3" value="d0" style="rounded=0;whiteSpace=wrap;html=1;container=0;" vertex="1" parent="1">
          <mxGeometry x="1160" y="360" width="40" height="40" as="geometry" />
        </mxCell>
        <mxCell id="4JpqzVYgigg34PEvqqd3-4" value="d1" style="rounded=0;whiteSpace=wrap;html=1;container=0;" vertex="1" parent="1">
          <mxGeometry x="1200" y="360" width="40" height="40" as="geometry" />
        </mxCell>
        <mxCell id="4JpqzVYgigg34PEvqqd3-5" value="d2" style="rounded=0;whiteSpace=wrap;html=1;container=0;" vertex="1" parent="1">
          <mxGeometry x="1240" y="360" width="40" height="40" as="geometry" />
        </mxCell>
        <mxCell id="4JpqzVYgigg34PEvqqd3-6" value="d3" style="rounded=0;whiteSpace=wrap;html=1;container=0;" vertex="1" parent="1">
          <mxGeometry x="1280" y="360" width="40" height="40" as="geometry" />
        </mxCell>
        <mxCell id="4JpqzVYgigg34PEvqqd3-7" value="d4" style="rounded=0;whiteSpace=wrap;html=1;container=0;" vertex="1" parent="1">
          <mxGeometry x="1320" y="360" width="40" height="40" as="geometry" />
        </mxCell>
        <mxCell id="4JpqzVYgigg34PEvqqd3-8" value="d5" style="rounded=0;whiteSpace=wrap;html=1;container=0;" vertex="1" parent="1">
          <mxGeometry x="1360" y="360" width="40" height="40" as="geometry" />
        </mxCell>
        <mxCell id="4JpqzVYgigg34PEvqqd3-9" value="d6" style="rounded=0;whiteSpace=wrap;html=1;container=0;" vertex="1" parent="1">
          <mxGeometry x="1400" y="360" width="40" height="40" as="geometry" />
        </mxCell>
        <mxCell id="4JpqzVYgigg34PEvqqd3-10" value="d7" style="rounded=0;whiteSpace=wrap;html=1;container=0;" vertex="1" parent="1">
          <mxGeometry x="1440" y="360" width="40" height="40" as="geometry" />
        </mxCell>
        <mxCell id="4JpqzVYgigg34PEvqqd3-11" value="d8" style="rounded=0;whiteSpace=wrap;html=1;container=0;fillColor=#dae8fc;strokeColor=#6c8ebf;" vertex="1" parent="1">
          <mxGeometry x="1480" y="360" width="40" height="40" as="geometry" />
        </mxCell>
        <mxCell id="4JpqzVYgigg34PEvqqd3-12" value="d9" style="rounded=0;whiteSpace=wrap;html=1;container=0;" vertex="1" parent="1">
          <mxGeometry x="1520" y="360" width="40" height="40" as="geometry" />
        </mxCell>
        <mxCell id="4JpqzVYgigg34PEvqqd3-13" value="d10" style="rounded=0;whiteSpace=wrap;html=1;container=0;" vertex="1" parent="1">
          <mxGeometry x="1560" y="360" width="40" height="40" as="geometry" />
        </mxCell>
        <mxCell id="4JpqzVYgigg34PEvqqd3-14" value="d11" style="rounded=0;whiteSpace=wrap;html=1;container=0;" vertex="1" parent="1">
          <mxGeometry x="1600" y="360" width="40" height="40" as="geometry" />
        </mxCell>
        <mxCell id="4JpqzVYgigg34PEvqqd3-15" value="d12" style="rounded=0;whiteSpace=wrap;html=1;container=0;" vertex="1" parent="1">
          <mxGeometry x="1640" y="360" width="40" height="40" as="geometry" />
        </mxCell>
        <mxCell id="4JpqzVYgigg34PEvqqd3-16" value="d13" style="rounded=0;whiteSpace=wrap;html=1;container=0;" vertex="1" parent="1">
          <mxGeometry x="1680" y="360" width="40" height="40" as="geometry" />
        </mxCell>
        <mxCell id="4JpqzVYgigg34PEvqqd3-17" value="d14" style="rounded=0;whiteSpace=wrap;html=1;container=0;" vertex="1" parent="1">
          <mxGeometry x="1720" y="360" width="40" height="40" as="geometry" />
        </mxCell>
        <mxCell id="4JpqzVYgigg34PEvqqd3-18" value="d15" style="rounded=0;whiteSpace=wrap;html=1;container=0;" vertex="1" parent="1">
          <mxGeometry x="1760" y="360" width="40" height="40" as="geometry" />
        </mxCell>
        <mxCell id="4JpqzVYgigg34PEvqqd3-19" value="d16" style="rounded=0;whiteSpace=wrap;html=1;container=0;" vertex="1" parent="1">
          <mxGeometry x="1800" y="360" width="40" height="40" as="geometry" />
        </mxCell>
        <mxCell id="4JpqzVYgigg34PEvqqd3-20" value="d17" style="rounded=0;whiteSpace=wrap;html=1;container=0;" vertex="1" parent="1">
          <mxGeometry x="1160" y="400" width="40" height="40" as="geometry" />
        </mxCell>
        <mxCell id="4JpqzVYgigg34PEvqqd3-21" value="d18" style="rounded=0;whiteSpace=wrap;html=1;container=0;" vertex="1" parent="1">
          <mxGeometry x="1200" y="400" width="40" height="40" as="geometry" />
        </mxCell>
        <mxCell id="4JpqzVYgigg34PEvqqd3-22" value="d19" style="rounded=0;whiteSpace=wrap;html=1;container=0;" vertex="1" parent="1">
          <mxGeometry x="1240" y="400" width="40" height="40" as="geometry" />
        </mxCell>
        <mxCell id="4JpqzVYgigg34PEvqqd3-23" value="d20" style="rounded=0;whiteSpace=wrap;html=1;container=0;" vertex="1" parent="1">
          <mxGeometry x="1280" y="400" width="40" height="40" as="geometry" />
        </mxCell>
        <mxCell id="4JpqzVYgigg34PEvqqd3-24" value="d21" style="rounded=0;whiteSpace=wrap;html=1;container=0;" vertex="1" parent="1">
          <mxGeometry x="1320" y="400" width="40" height="40" as="geometry" />
        </mxCell>
        <mxCell id="4JpqzVYgigg34PEvqqd3-25" value="d22" style="rounded=0;whiteSpace=wrap;html=1;container=0;" vertex="1" parent="1">
          <mxGeometry x="1360" y="400" width="40" height="40" as="geometry" />
        </mxCell>
        <mxCell id="4JpqzVYgigg34PEvqqd3-26" value="d23" style="rounded=0;whiteSpace=wrap;html=1;container=0;" vertex="1" parent="1">
          <mxGeometry x="1400" y="400" width="40" height="40" as="geometry" />
        </mxCell>
        <mxCell id="4JpqzVYgigg34PEvqqd3-27" value="d24" style="rounded=0;whiteSpace=wrap;html=1;container=0;" vertex="1" parent="1">
          <mxGeometry x="1440" y="400" width="40" height="40" as="geometry" />
        </mxCell>
        <mxCell id="4JpqzVYgigg34PEvqqd3-28" value="d25" style="rounded=0;whiteSpace=wrap;html=1;container=0;fillColor=#dae8fc;strokeColor=#6c8ebf;" vertex="1" parent="1">
          <mxGeometry x="1480" y="400" width="40" height="40" as="geometry" />
        </mxCell>
        <mxCell id="4JpqzVYgigg34PEvqqd3-29" value="d26" style="rounded=0;whiteSpace=wrap;html=1;container=0;" vertex="1" parent="1">
          <mxGeometry x="1520" y="400" width="40" height="40" as="geometry" />
        </mxCell>
        <mxCell id="4JpqzVYgigg34PEvqqd3-30" value="d27" style="rounded=0;whiteSpace=wrap;html=1;container=0;" vertex="1" parent="1">
          <mxGeometry x="1560" y="400" width="40" height="40" as="geometry" />
        </mxCell>
        <mxCell id="4JpqzVYgigg34PEvqqd3-31" value="d28" style="rounded=0;whiteSpace=wrap;html=1;container=0;" vertex="1" parent="1">
          <mxGeometry x="1600" y="400" width="40" height="40" as="geometry" />
        </mxCell>
        <mxCell id="4JpqzVYgigg34PEvqqd3-32" value="d29" style="rounded=0;whiteSpace=wrap;html=1;container=0;" vertex="1" parent="1">
          <mxGeometry x="1640" y="400" width="40" height="40" as="geometry" />
        </mxCell>
        <mxCell id="4JpqzVYgigg34PEvqqd3-33" value="d30" style="rounded=0;whiteSpace=wrap;html=1;container=0;" vertex="1" parent="1">
          <mxGeometry x="1680" y="400" width="40" height="40" as="geometry" />
        </mxCell>
        <mxCell id="4JpqzVYgigg34PEvqqd3-34" value="d31" style="rounded=0;whiteSpace=wrap;html=1;container=0;" vertex="1" parent="1">
          <mxGeometry x="1720" y="400" width="40" height="40" as="geometry" />
        </mxCell>
        <mxCell id="4JpqzVYgigg34PEvqqd3-35" value="d32" style="rounded=0;whiteSpace=wrap;html=1;container=0;" vertex="1" parent="1">
          <mxGeometry x="1760" y="400" width="40" height="40" as="geometry" />
        </mxCell>
        <mxCell id="4JpqzVYgigg34PEvqqd3-36" value="d33" style="rounded=0;whiteSpace=wrap;html=1;container=0;" vertex="1" parent="1">
          <mxGeometry x="1800" y="400" width="40" height="40" as="geometry" />
        </mxCell>
        <mxCell id="4JpqzVYgigg34PEvqqd3-37" value="d34" style="rounded=0;whiteSpace=wrap;html=1;container=0;" vertex="1" parent="1">
          <mxGeometry x="1160" y="440" width="40" height="40" as="geometry" />
        </mxCell>
        <mxCell id="4JpqzVYgigg34PEvqqd3-38" value="d35" style="rounded=0;whiteSpace=wrap;html=1;container=0;" vertex="1" parent="1">
          <mxGeometry x="1200" y="440" width="40" height="40" as="geometry" />
        </mxCell>
        <mxCell id="4JpqzVYgigg34PEvqqd3-39" value="d36" style="rounded=0;whiteSpace=wrap;html=1;container=0;" vertex="1" parent="1">
          <mxGeometry x="1240" y="440" width="40" height="40" as="geometry" />
        </mxCell>
        <mxCell id="4JpqzVYgigg34PEvqqd3-40" value="d37" style="rounded=0;whiteSpace=wrap;html=1;container=0;" vertex="1" parent="1">
          <mxGeometry x="1280" y="440" width="40" height="40" as="geometry" />
        </mxCell>
        <mxCell id="4JpqzVYgigg34PEvqqd3-41" value="d38" style="rounded=0;whiteSpace=wrap;html=1;container=0;" vertex="1" parent="1">
          <mxGeometry x="1320" y="440" width="40" height="40" as="geometry" />
        </mxCell>
        <mxCell id="4JpqzVYgigg34PEvqqd3-42" value="d39" style="rounded=0;whiteSpace=wrap;html=1;container=0;" vertex="1" parent="1">
          <mxGeometry x="1360" y="440" width="40" height="40" as="geometry" />
        </mxCell>
        <mxCell id="4JpqzVYgigg34PEvqqd3-43" value="d40" style="rounded=0;whiteSpace=wrap;html=1;container=0;" vertex="1" parent="1">
          <mxGeometry x="1400" y="440" width="40" height="40" as="geometry" />
        </mxCell>
        <mxCell id="4JpqzVYgigg34PEvqqd3-44" value="d41" style="rounded=0;whiteSpace=wrap;html=1;container=0;" vertex="1" parent="1">
          <mxGeometry x="1440" y="440" width="40" height="40" as="geometry" />
        </mxCell>
        <mxCell id="4JpqzVYgigg34PEvqqd3-45" value="d42" style="rounded=0;whiteSpace=wrap;html=1;container=0;fillColor=#dae8fc;strokeColor=#6c8ebf;" vertex="1" parent="1">
          <mxGeometry x="1480" y="440" width="40" height="40" as="geometry" />
        </mxCell>
        <mxCell id="4JpqzVYgigg34PEvqqd3-46" value="d43" style="rounded=0;whiteSpace=wrap;html=1;container=0;" vertex="1" parent="1">
          <mxGeometry x="1520" y="440" width="40" height="40" as="geometry" />
        </mxCell>
        <mxCell id="4JpqzVYgigg34PEvqqd3-47" value="d44" style="rounded=0;whiteSpace=wrap;html=1;container=0;" vertex="1" parent="1">
          <mxGeometry x="1560" y="440" width="40" height="40" as="geometry" />
        </mxCell>
        <mxCell id="4JpqzVYgigg34PEvqqd3-48" value="d45" style="rounded=0;whiteSpace=wrap;html=1;container=0;" vertex="1" parent="1">
          <mxGeometry x="1600" y="440" width="40" height="40" as="geometry" />
        </mxCell>
        <mxCell id="4JpqzVYgigg34PEvqqd3-49" value="d46" style="rounded=0;whiteSpace=wrap;html=1;container=0;" vertex="1" parent="1">
          <mxGeometry x="1640" y="440" width="40" height="40" as="geometry" />
        </mxCell>
        <mxCell id="4JpqzVYgigg34PEvqqd3-50" value="d47" style="rounded=0;whiteSpace=wrap;html=1;container=0;" vertex="1" parent="1">
          <mxGeometry x="1680" y="440" width="40" height="40" as="geometry" />
        </mxCell>
        <mxCell id="4JpqzVYgigg34PEvqqd3-51" value="d48" style="rounded=0;whiteSpace=wrap;html=1;container=0;" vertex="1" parent="1">
          <mxGeometry x="1720" y="440" width="40" height="40" as="geometry" />
        </mxCell>
        <mxCell id="4JpqzVYgigg34PEvqqd3-52" value="d49" style="rounded=0;whiteSpace=wrap;html=1;container=0;" vertex="1" parent="1">
          <mxGeometry x="1760" y="440" width="40" height="40" as="geometry" />
        </mxCell>
        <mxCell id="4JpqzVYgigg34PEvqqd3-53" value="d50" style="rounded=0;whiteSpace=wrap;html=1;container=0;" vertex="1" parent="1">
          <mxGeometry x="1800" y="440" width="40" height="40" as="geometry" />
        </mxCell>
        <mxCell id="4JpqzVYgigg34PEvqqd3-54" value="d51" style="rounded=0;whiteSpace=wrap;html=1;container=0;" vertex="1" parent="1">
          <mxGeometry x="1160" y="480" width="40" height="40" as="geometry" />
        </mxCell>
        <mxCell id="4JpqzVYgigg34PEvqqd3-55" value="d52" style="rounded=0;whiteSpace=wrap;html=1;container=0;" vertex="1" parent="1">
          <mxGeometry x="1200" y="480" width="40" height="40" as="geometry" />
        </mxCell>
        <mxCell id="4JpqzVYgigg34PEvqqd3-56" value="d53" style="rounded=0;whiteSpace=wrap;html=1;container=0;" vertex="1" parent="1">
          <mxGeometry x="1240" y="480" width="40" height="40" as="geometry" />
        </mxCell>
        <mxCell id="4JpqzVYgigg34PEvqqd3-57" value="d54" style="rounded=0;whiteSpace=wrap;html=1;container=0;" vertex="1" parent="1">
          <mxGeometry x="1280" y="480" width="40" height="40" as="geometry" />
        </mxCell>
        <mxCell id="4JpqzVYgigg34PEvqqd3-58" value="d55" style="rounded=0;whiteSpace=wrap;html=1;container=0;" vertex="1" parent="1">
          <mxGeometry x="1320" y="480" width="40" height="40" as="geometry" />
        </mxCell>
        <mxCell id="4JpqzVYgigg34PEvqqd3-59" value="d56" style="rounded=0;whiteSpace=wrap;html=1;container=0;" vertex="1" parent="1">
          <mxGeometry x="1360" y="480" width="40" height="40" as="geometry" />
        </mxCell>
        <mxCell id="4JpqzVYgigg34PEvqqd3-60" value="d57" style="rounded=0;whiteSpace=wrap;html=1;container=0;" vertex="1" parent="1">
          <mxGeometry x="1400" y="480" width="40" height="40" as="geometry" />
        </mxCell>
        <mxCell id="4JpqzVYgigg34PEvqqd3-61" value="d58" style="rounded=0;whiteSpace=wrap;html=1;container=0;" vertex="1" parent="1">
          <mxGeometry x="1440" y="480" width="40" height="40" as="geometry" />
        </mxCell>
        <mxCell id="4JpqzVYgigg34PEvqqd3-62" value="d59" style="rounded=0;whiteSpace=wrap;html=1;container=0;fillColor=#dae8fc;strokeColor=#6c8ebf;" vertex="1" parent="1">
          <mxGeometry x="1480" y="480" width="40" height="40" as="geometry" />
        </mxCell>
        <mxCell id="4JpqzVYgigg34PEvqqd3-63" value="d60" style="rounded=0;whiteSpace=wrap;html=1;container=0;" vertex="1" parent="1">
          <mxGeometry x="1520" y="480" width="40" height="40" as="geometry" />
        </mxCell>
        <mxCell id="4JpqzVYgigg34PEvqqd3-64" value="d61" style="rounded=0;whiteSpace=wrap;html=1;container=0;" vertex="1" parent="1">
          <mxGeometry x="1560" y="480" width="40" height="40" as="geometry" />
        </mxCell>
        <mxCell id="4JpqzVYgigg34PEvqqd3-65" value="d62" style="rounded=0;whiteSpace=wrap;html=1;container=0;" vertex="1" parent="1">
          <mxGeometry x="1600" y="480" width="40" height="40" as="geometry" />
        </mxCell>
        <mxCell id="4JpqzVYgigg34PEvqqd3-66" value="d63" style="rounded=0;whiteSpace=wrap;html=1;container=0;" vertex="1" parent="1">
          <mxGeometry x="1640" y="480" width="40" height="40" as="geometry" />
        </mxCell>
        <mxCell id="4JpqzVYgigg34PEvqqd3-67" value="d64" style="rounded=0;whiteSpace=wrap;html=1;container=0;" vertex="1" parent="1">
          <mxGeometry x="1680" y="480" width="40" height="40" as="geometry" />
        </mxCell>
        <mxCell id="4JpqzVYgigg34PEvqqd3-68" value="d65" style="rounded=0;whiteSpace=wrap;html=1;container=0;" vertex="1" parent="1">
          <mxGeometry x="1720" y="480" width="40" height="40" as="geometry" />
        </mxCell>
        <mxCell id="4JpqzVYgigg34PEvqqd3-69" value="d66" style="rounded=0;whiteSpace=wrap;html=1;container=0;" vertex="1" parent="1">
          <mxGeometry x="1760" y="480" width="40" height="40" as="geometry" />
        </mxCell>
        <mxCell id="4JpqzVYgigg34PEvqqd3-70" value="d67" style="rounded=0;whiteSpace=wrap;html=1;container=0;" vertex="1" parent="1">
          <mxGeometry x="1800" y="480" width="40" height="40" as="geometry" />
        </mxCell>
        <mxCell id="4JpqzVYgigg34PEvqqd3-71" value="d68" style="rounded=0;whiteSpace=wrap;html=1;container=0;" vertex="1" parent="1">
          <mxGeometry x="1160" y="520" width="40" height="40" as="geometry" />
        </mxCell>
        <mxCell id="4JpqzVYgigg34PEvqqd3-72" value="d69" style="rounded=0;whiteSpace=wrap;html=1;container=0;" vertex="1" parent="1">
          <mxGeometry x="1200" y="520" width="40" height="40" as="geometry" />
        </mxCell>
        <mxCell id="4JpqzVYgigg34PEvqqd3-73" value="d70" style="rounded=0;whiteSpace=wrap;html=1;container=0;" vertex="1" parent="1">
          <mxGeometry x="1240" y="520" width="40" height="40" as="geometry" />
        </mxCell>
        <mxCell id="4JpqzVYgigg34PEvqqd3-74" value="d71" style="rounded=0;whiteSpace=wrap;html=1;container=0;" vertex="1" parent="1">
          <mxGeometry x="1280" y="520" width="40" height="40" as="geometry" />
        </mxCell>
        <mxCell id="4JpqzVYgigg34PEvqqd3-75" value="d72" style="rounded=0;whiteSpace=wrap;html=1;container=0;" vertex="1" parent="1">
          <mxGeometry x="1320" y="520" width="40" height="40" as="geometry" />
        </mxCell>
        <mxCell id="4JpqzVYgigg34PEvqqd3-76" value="d73" style="rounded=0;whiteSpace=wrap;html=1;container=0;" vertex="1" parent="1">
          <mxGeometry x="1360" y="520" width="40" height="40" as="geometry" />
        </mxCell>
        <mxCell id="4JpqzVYgigg34PEvqqd3-77" value="d74" style="rounded=0;whiteSpace=wrap;html=1;container=0;" vertex="1" parent="1">
          <mxGeometry x="1400" y="520" width="40" height="40" as="geometry" />
        </mxCell>
        <mxCell id="4JpqzVYgigg34PEvqqd3-78" value="d75" style="rounded=0;whiteSpace=wrap;html=1;container=0;" vertex="1" parent="1">
          <mxGeometry x="1440" y="520" width="40" height="40" as="geometry" />
        </mxCell>
        <mxCell id="4JpqzVYgigg34PEvqqd3-79" value="d76" style="rounded=0;whiteSpace=wrap;html=1;container=0;fillColor=#dae8fc;strokeColor=#6c8ebf;" vertex="1" parent="1">
          <mxGeometry x="1480" y="520" width="40" height="40" as="geometry" />
        </mxCell>
        <mxCell id="4JpqzVYgigg34PEvqqd3-80" value="d77" style="rounded=0;whiteSpace=wrap;html=1;container=0;" vertex="1" parent="1">
          <mxGeometry x="1520" y="520" width="40" height="40" as="geometry" />
        </mxCell>
        <mxCell id="4JpqzVYgigg34PEvqqd3-81" value="d78" style="rounded=0;whiteSpace=wrap;html=1;container=0;" vertex="1" parent="1">
          <mxGeometry x="1560" y="520" width="40" height="40" as="geometry" />
        </mxCell>
        <mxCell id="4JpqzVYgigg34PEvqqd3-82" value="d79" style="rounded=0;whiteSpace=wrap;html=1;container=0;" vertex="1" parent="1">
          <mxGeometry x="1600" y="520" width="40" height="40" as="geometry" />
        </mxCell>
        <mxCell id="4JpqzVYgigg34PEvqqd3-83" value="d80" style="rounded=0;whiteSpace=wrap;html=1;container=0;" vertex="1" parent="1">
          <mxGeometry x="1640" y="520" width="40" height="40" as="geometry" />
        </mxCell>
        <mxCell id="4JpqzVYgigg34PEvqqd3-84" value="d81" style="rounded=0;whiteSpace=wrap;html=1;container=0;" vertex="1" parent="1">
          <mxGeometry x="1680" y="520" width="40" height="40" as="geometry" />
        </mxCell>
        <mxCell id="4JpqzVYgigg34PEvqqd3-85" value="d82" style="rounded=0;whiteSpace=wrap;html=1;container=0;" vertex="1" parent="1">
          <mxGeometry x="1720" y="520" width="40" height="40" as="geometry" />
        </mxCell>
        <mxCell id="4JpqzVYgigg34PEvqqd3-86" value="d83" style="rounded=0;whiteSpace=wrap;html=1;container=0;" vertex="1" parent="1">
          <mxGeometry x="1760" y="520" width="40" height="40" as="geometry" />
        </mxCell>
        <mxCell id="4JpqzVYgigg34PEvqqd3-294" style="edgeStyle=orthogonalEdgeStyle;rounded=0;orthogonalLoop=1;jettySize=auto;html=1;exitX=1;exitY=0;exitDx=0;exitDy=0;" edge="1" parent="1" source="4JpqzVYgigg34PEvqqd3-87">
          <mxGeometry relative="1" as="geometry">
            <mxPoint x="1850" y="520" as="targetPoint" />
          </mxGeometry>
        </mxCell>
        <mxCell id="4JpqzVYgigg34PEvqqd3-87" value="d84" style="rounded=0;whiteSpace=wrap;html=1;container=0;" vertex="1" parent="1">
          <mxGeometry x="1800" y="520" width="40" height="40" as="geometry" />
        </mxCell>
        <mxCell id="4JpqzVYgigg34PEvqqd3-88" value="d85" style="rounded=0;whiteSpace=wrap;html=1;container=0;" vertex="1" parent="1">
          <mxGeometry x="1160" y="560" width="40" height="40" as="geometry" />
        </mxCell>
        <mxCell id="4JpqzVYgigg34PEvqqd3-89" value="d86" style="rounded=0;whiteSpace=wrap;html=1;container=0;" vertex="1" parent="1">
          <mxGeometry x="1200" y="560" width="40" height="40" as="geometry" />
        </mxCell>
        <mxCell id="4JpqzVYgigg34PEvqqd3-90" value="d87" style="rounded=0;whiteSpace=wrap;html=1;container=0;" vertex="1" parent="1">
          <mxGeometry x="1240" y="560" width="40" height="40" as="geometry" />
        </mxCell>
        <mxCell id="4JpqzVYgigg34PEvqqd3-91" value="d88" style="rounded=0;whiteSpace=wrap;html=1;container=0;" vertex="1" parent="1">
          <mxGeometry x="1280" y="560" width="40" height="40" as="geometry" />
        </mxCell>
        <mxCell id="4JpqzVYgigg34PEvqqd3-92" value="d89" style="rounded=0;whiteSpace=wrap;html=1;container=0;" vertex="1" parent="1">
          <mxGeometry x="1320" y="560" width="40" height="40" as="geometry" />
        </mxCell>
        <mxCell id="4JpqzVYgigg34PEvqqd3-93" value="d90" style="rounded=0;whiteSpace=wrap;html=1;container=0;" vertex="1" parent="1">
          <mxGeometry x="1360" y="560" width="40" height="40" as="geometry" />
        </mxCell>
        <mxCell id="4JpqzVYgigg34PEvqqd3-94" value="d91" style="rounded=0;whiteSpace=wrap;html=1;container=0;" vertex="1" parent="1">
          <mxGeometry x="1400" y="560" width="40" height="40" as="geometry" />
        </mxCell>
        <mxCell id="4JpqzVYgigg34PEvqqd3-95" value="d92" style="rounded=0;whiteSpace=wrap;html=1;container=0;" vertex="1" parent="1">
          <mxGeometry x="1440" y="560" width="40" height="40" as="geometry" />
        </mxCell>
        <mxCell id="4JpqzVYgigg34PEvqqd3-96" value="d93" style="rounded=0;whiteSpace=wrap;html=1;container=0;fillColor=#dae8fc;strokeColor=#6c8ebf;" vertex="1" parent="1">
          <mxGeometry x="1480" y="560" width="40" height="40" as="geometry" />
        </mxCell>
        <mxCell id="4JpqzVYgigg34PEvqqd3-97" value="d94" style="rounded=0;whiteSpace=wrap;html=1;container=0;" vertex="1" parent="1">
          <mxGeometry x="1520" y="560" width="40" height="40" as="geometry" />
        </mxCell>
        <mxCell id="4JpqzVYgigg34PEvqqd3-98" value="d95" style="rounded=0;whiteSpace=wrap;html=1;container=0;" vertex="1" parent="1">
          <mxGeometry x="1560" y="560" width="40" height="40" as="geometry" />
        </mxCell>
        <mxCell id="4JpqzVYgigg34PEvqqd3-99" value="d96" style="rounded=0;whiteSpace=wrap;html=1;container=0;" vertex="1" parent="1">
          <mxGeometry x="1600" y="560" width="40" height="40" as="geometry" />
        </mxCell>
        <mxCell id="4JpqzVYgigg34PEvqqd3-100" value="d97" style="rounded=0;whiteSpace=wrap;html=1;container=0;" vertex="1" parent="1">
          <mxGeometry x="1640" y="560" width="40" height="40" as="geometry" />
        </mxCell>
        <mxCell id="4JpqzVYgigg34PEvqqd3-101" value="d98" style="rounded=0;whiteSpace=wrap;html=1;container=0;" vertex="1" parent="1">
          <mxGeometry x="1680" y="560" width="40" height="40" as="geometry" />
        </mxCell>
        <mxCell id="4JpqzVYgigg34PEvqqd3-102" value="d99" style="rounded=0;whiteSpace=wrap;html=1;container=0;" vertex="1" parent="1">
          <mxGeometry x="1720" y="560" width="40" height="40" as="geometry" />
        </mxCell>
        <mxCell id="4JpqzVYgigg34PEvqqd3-103" value="d100" style="rounded=0;whiteSpace=wrap;html=1;container=0;" vertex="1" parent="1">
          <mxGeometry x="1760" y="560" width="40" height="40" as="geometry" />
        </mxCell>
        <mxCell id="4JpqzVYgigg34PEvqqd3-104" value="d101" style="rounded=0;whiteSpace=wrap;html=1;container=0;" vertex="1" parent="1">
          <mxGeometry x="1800" y="560" width="40" height="40" as="geometry" />
        </mxCell>
        <mxCell id="4JpqzVYgigg34PEvqqd3-105" value="d102" style="rounded=0;whiteSpace=wrap;html=1;container=0;" vertex="1" parent="1">
          <mxGeometry x="1160" y="600" width="40" height="40" as="geometry" />
        </mxCell>
        <mxCell id="4JpqzVYgigg34PEvqqd3-106" value="d103" style="rounded=0;whiteSpace=wrap;html=1;container=0;" vertex="1" parent="1">
          <mxGeometry x="1200" y="600" width="40" height="40" as="geometry" />
        </mxCell>
        <mxCell id="4JpqzVYgigg34PEvqqd3-107" value="d104" style="rounded=0;whiteSpace=wrap;html=1;container=0;" vertex="1" parent="1">
          <mxGeometry x="1240" y="600" width="40" height="40" as="geometry" />
        </mxCell>
        <mxCell id="4JpqzVYgigg34PEvqqd3-108" value="d105" style="rounded=0;whiteSpace=wrap;html=1;container=0;" vertex="1" parent="1">
          <mxGeometry x="1280" y="600" width="40" height="40" as="geometry" />
        </mxCell>
        <mxCell id="4JpqzVYgigg34PEvqqd3-109" value="d106" style="rounded=0;whiteSpace=wrap;html=1;container=0;" vertex="1" parent="1">
          <mxGeometry x="1320" y="600" width="40" height="40" as="geometry" />
        </mxCell>
        <mxCell id="4JpqzVYgigg34PEvqqd3-110" value="d107" style="rounded=0;whiteSpace=wrap;html=1;container=0;" vertex="1" parent="1">
          <mxGeometry x="1360" y="600" width="40" height="40" as="geometry" />
        </mxCell>
        <mxCell id="4JpqzVYgigg34PEvqqd3-111" value="d108" style="rounded=0;whiteSpace=wrap;html=1;container=0;" vertex="1" parent="1">
          <mxGeometry x="1400" y="600" width="40" height="40" as="geometry" />
        </mxCell>
        <mxCell id="4JpqzVYgigg34PEvqqd3-112" value="d109" style="rounded=0;whiteSpace=wrap;html=1;container=0;" vertex="1" parent="1">
          <mxGeometry x="1440" y="600" width="40" height="40" as="geometry" />
        </mxCell>
        <mxCell id="4JpqzVYgigg34PEvqqd3-113" value="d110" style="rounded=0;whiteSpace=wrap;html=1;container=0;fillColor=#dae8fc;strokeColor=#6c8ebf;" vertex="1" parent="1">
          <mxGeometry x="1480" y="600" width="40" height="40" as="geometry" />
        </mxCell>
        <mxCell id="4JpqzVYgigg34PEvqqd3-114" value="d111" style="rounded=0;whiteSpace=wrap;html=1;container=0;" vertex="1" parent="1">
          <mxGeometry x="1520" y="600" width="40" height="40" as="geometry" />
        </mxCell>
        <mxCell id="4JpqzVYgigg34PEvqqd3-115" value="d112" style="rounded=0;whiteSpace=wrap;html=1;container=0;" vertex="1" parent="1">
          <mxGeometry x="1560" y="600" width="40" height="40" as="geometry" />
        </mxCell>
        <mxCell id="4JpqzVYgigg34PEvqqd3-116" value="d113" style="rounded=0;whiteSpace=wrap;html=1;container=0;" vertex="1" parent="1">
          <mxGeometry x="1600" y="600" width="40" height="40" as="geometry" />
        </mxCell>
        <mxCell id="4JpqzVYgigg34PEvqqd3-117" value="d114" style="rounded=0;whiteSpace=wrap;html=1;container=0;" vertex="1" parent="1">
          <mxGeometry x="1640" y="600" width="40" height="40" as="geometry" />
        </mxCell>
        <mxCell id="4JpqzVYgigg34PEvqqd3-118" value="d115" style="rounded=0;whiteSpace=wrap;html=1;container=0;" vertex="1" parent="1">
          <mxGeometry x="1680" y="600" width="40" height="40" as="geometry" />
        </mxCell>
        <mxCell id="4JpqzVYgigg34PEvqqd3-119" value="d116" style="rounded=0;whiteSpace=wrap;html=1;container=0;" vertex="1" parent="1">
          <mxGeometry x="1720" y="600" width="40" height="40" as="geometry" />
        </mxCell>
        <mxCell id="4JpqzVYgigg34PEvqqd3-120" value="d117" style="rounded=0;whiteSpace=wrap;html=1;container=0;" vertex="1" parent="1">
          <mxGeometry x="1760" y="600" width="40" height="40" as="geometry" />
        </mxCell>
        <mxCell id="4JpqzVYgigg34PEvqqd3-121" value="d118" style="rounded=0;whiteSpace=wrap;html=1;container=0;" vertex="1" parent="1">
          <mxGeometry x="1800" y="600" width="40" height="40" as="geometry" />
        </mxCell>
        <mxCell id="4JpqzVYgigg34PEvqqd3-122" value="d119" style="rounded=0;whiteSpace=wrap;html=1;container=0;" vertex="1" parent="1">
          <mxGeometry x="1160" y="640" width="40" height="40" as="geometry" />
        </mxCell>
        <mxCell id="4JpqzVYgigg34PEvqqd3-123" value="d120" style="rounded=0;whiteSpace=wrap;html=1;container=0;" vertex="1" parent="1">
          <mxGeometry x="1200" y="640" width="40" height="40" as="geometry" />
        </mxCell>
        <mxCell id="4JpqzVYgigg34PEvqqd3-124" value="d121" style="rounded=0;whiteSpace=wrap;html=1;container=0;" vertex="1" parent="1">
          <mxGeometry x="1240" y="640" width="40" height="40" as="geometry" />
        </mxCell>
        <mxCell id="4JpqzVYgigg34PEvqqd3-125" value="d122" style="rounded=0;whiteSpace=wrap;html=1;container=0;" vertex="1" parent="1">
          <mxGeometry x="1280" y="640" width="40" height="40" as="geometry" />
        </mxCell>
        <mxCell id="4JpqzVYgigg34PEvqqd3-126" value="d123" style="rounded=0;whiteSpace=wrap;html=1;container=0;" vertex="1" parent="1">
          <mxGeometry x="1320" y="640" width="40" height="40" as="geometry" />
        </mxCell>
        <mxCell id="4JpqzVYgigg34PEvqqd3-127" value="d124" style="rounded=0;whiteSpace=wrap;html=1;container=0;" vertex="1" parent="1">
          <mxGeometry x="1360" y="640" width="40" height="40" as="geometry" />
        </mxCell>
        <mxCell id="4JpqzVYgigg34PEvqqd3-128" value="d125" style="rounded=0;whiteSpace=wrap;html=1;container=0;" vertex="1" parent="1">
          <mxGeometry x="1400" y="640" width="40" height="40" as="geometry" />
        </mxCell>
        <mxCell id="4JpqzVYgigg34PEvqqd3-129" value="d126" style="rounded=0;whiteSpace=wrap;html=1;container=0;" vertex="1" parent="1">
          <mxGeometry x="1440" y="640" width="40" height="40" as="geometry" />
        </mxCell>
        <mxCell id="4JpqzVYgigg34PEvqqd3-130" value="d127" style="rounded=0;whiteSpace=wrap;html=1;container=0;fillColor=#dae8fc;strokeColor=#6c8ebf;" vertex="1" parent="1">
          <mxGeometry x="1480" y="640" width="40" height="40" as="geometry" />
        </mxCell>
        <mxCell id="4JpqzVYgigg34PEvqqd3-131" value="d128" style="rounded=0;whiteSpace=wrap;html=1;container=0;" vertex="1" parent="1">
          <mxGeometry x="1520" y="640" width="40" height="40" as="geometry" />
        </mxCell>
        <mxCell id="4JpqzVYgigg34PEvqqd3-132" value="d129" style="rounded=0;whiteSpace=wrap;html=1;container=0;" vertex="1" parent="1">
          <mxGeometry x="1560" y="640" width="40" height="40" as="geometry" />
        </mxCell>
        <mxCell id="4JpqzVYgigg34PEvqqd3-133" value="d130" style="rounded=0;whiteSpace=wrap;html=1;container=0;" vertex="1" parent="1">
          <mxGeometry x="1600" y="640" width="40" height="40" as="geometry" />
        </mxCell>
        <mxCell id="4JpqzVYgigg34PEvqqd3-134" value="d131" style="rounded=0;whiteSpace=wrap;html=1;container=0;" vertex="1" parent="1">
          <mxGeometry x="1640" y="640" width="40" height="40" as="geometry" />
        </mxCell>
        <mxCell id="4JpqzVYgigg34PEvqqd3-135" value="d132" style="rounded=0;whiteSpace=wrap;html=1;container=0;" vertex="1" parent="1">
          <mxGeometry x="1680" y="640" width="40" height="40" as="geometry" />
        </mxCell>
        <mxCell id="4JpqzVYgigg34PEvqqd3-136" value="d133" style="rounded=0;whiteSpace=wrap;html=1;container=0;" vertex="1" parent="1">
          <mxGeometry x="1720" y="640" width="40" height="40" as="geometry" />
        </mxCell>
        <mxCell id="4JpqzVYgigg34PEvqqd3-137" value="d134" style="rounded=0;whiteSpace=wrap;html=1;container=0;" vertex="1" parent="1">
          <mxGeometry x="1760" y="640" width="40" height="40" as="geometry" />
        </mxCell>
        <mxCell id="4JpqzVYgigg34PEvqqd3-138" value="d135" style="rounded=0;whiteSpace=wrap;html=1;container=0;" vertex="1" parent="1">
          <mxGeometry x="1800" y="640" width="40" height="40" as="geometry" />
        </mxCell>
        <mxCell id="4JpqzVYgigg34PEvqqd3-139" value="d136" style="rounded=0;whiteSpace=wrap;html=1;container=0;fillColor=#dae8fc;strokeColor=#6c8ebf;" vertex="1" parent="1">
          <mxGeometry x="1160" y="680" width="40" height="40" as="geometry" />
        </mxCell>
        <mxCell id="4JpqzVYgigg34PEvqqd3-140" value="d137" style="rounded=0;whiteSpace=wrap;html=1;container=0;fillColor=#dae8fc;strokeColor=#6c8ebf;" vertex="1" parent="1">
          <mxGeometry x="1200" y="680" width="40" height="40" as="geometry" />
        </mxCell>
        <mxCell id="4JpqzVYgigg34PEvqqd3-141" value="d138" style="rounded=0;whiteSpace=wrap;html=1;container=0;fillColor=#dae8fc;strokeColor=#6c8ebf;" vertex="1" parent="1">
          <mxGeometry x="1240" y="680" width="40" height="40" as="geometry" />
        </mxCell>
        <mxCell id="4JpqzVYgigg34PEvqqd3-142" value="d139" style="rounded=0;whiteSpace=wrap;html=1;container=0;fillColor=#dae8fc;strokeColor=#6c8ebf;" vertex="1" parent="1">
          <mxGeometry x="1280" y="680" width="40" height="40" as="geometry" />
        </mxCell>
        <mxCell id="4JpqzVYgigg34PEvqqd3-143" value="d140" style="rounded=0;whiteSpace=wrap;html=1;container=0;fillColor=#dae8fc;strokeColor=#6c8ebf;" vertex="1" parent="1">
          <mxGeometry x="1320" y="680" width="40" height="40" as="geometry" />
        </mxCell>
        <mxCell id="4JpqzVYgigg34PEvqqd3-144" value="d141" style="rounded=0;whiteSpace=wrap;html=1;container=0;fillColor=#dae8fc;strokeColor=#6c8ebf;" vertex="1" parent="1">
          <mxGeometry x="1360" y="680" width="40" height="40" as="geometry" />
        </mxCell>
        <mxCell id="4JpqzVYgigg34PEvqqd3-145" value="d142" style="rounded=0;whiteSpace=wrap;html=1;container=0;fillColor=#dae8fc;strokeColor=#6c8ebf;" vertex="1" parent="1">
          <mxGeometry x="1400" y="680" width="40" height="40" as="geometry" />
        </mxCell>
        <mxCell id="4JpqzVYgigg34PEvqqd3-146" value="d143" style="rounded=0;whiteSpace=wrap;html=1;container=0;fillColor=#dae8fc;strokeColor=#6c8ebf;" vertex="1" parent="1">
          <mxGeometry x="1440" y="680" width="40" height="40" as="geometry" />
        </mxCell>
        <mxCell id="4JpqzVYgigg34PEvqqd3-147" value="d144" style="rounded=0;whiteSpace=wrap;html=1;container=0;fillColor=#fff2cc;strokeColor=#d6b656;" vertex="1" parent="1">
          <mxGeometry x="1480" y="680" width="40" height="40" as="geometry" />
        </mxCell>
        <mxCell id="4JpqzVYgigg34PEvqqd3-148" value="d145" style="rounded=0;whiteSpace=wrap;html=1;container=0;fillColor=#dae8fc;strokeColor=#6c8ebf;" vertex="1" parent="1">
          <mxGeometry x="1520" y="680" width="40" height="40" as="geometry" />
        </mxCell>
        <mxCell id="4JpqzVYgigg34PEvqqd3-149" value="d146" style="rounded=0;whiteSpace=wrap;html=1;container=0;fillColor=#dae8fc;strokeColor=#6c8ebf;" vertex="1" parent="1">
          <mxGeometry x="1560" y="680" width="40" height="40" as="geometry" />
        </mxCell>
        <mxCell id="4JpqzVYgigg34PEvqqd3-150" value="d147" style="rounded=0;whiteSpace=wrap;html=1;container=0;fillColor=#dae8fc;strokeColor=#6c8ebf;" vertex="1" parent="1">
          <mxGeometry x="1600" y="680" width="40" height="40" as="geometry" />
        </mxCell>
        <mxCell id="4JpqzVYgigg34PEvqqd3-151" value="d148" style="rounded=0;whiteSpace=wrap;html=1;container=0;fillColor=#dae8fc;strokeColor=#6c8ebf;" vertex="1" parent="1">
          <mxGeometry x="1640" y="680" width="40" height="40" as="geometry" />
        </mxCell>
        <mxCell id="4JpqzVYgigg34PEvqqd3-152" value="d149" style="rounded=0;whiteSpace=wrap;html=1;container=0;fillColor=#dae8fc;strokeColor=#6c8ebf;" vertex="1" parent="1">
          <mxGeometry x="1680" y="680" width="40" height="40" as="geometry" />
        </mxCell>
        <mxCell id="4JpqzVYgigg34PEvqqd3-153" value="d150" style="rounded=0;whiteSpace=wrap;html=1;container=0;fillColor=#dae8fc;strokeColor=#6c8ebf;" vertex="1" parent="1">
          <mxGeometry x="1720" y="680" width="40" height="40" as="geometry" />
        </mxCell>
        <mxCell id="4JpqzVYgigg34PEvqqd3-154" value="d151" style="rounded=0;whiteSpace=wrap;html=1;container=0;fillColor=#dae8fc;strokeColor=#6c8ebf;" vertex="1" parent="1">
          <mxGeometry x="1760" y="680" width="40" height="40" as="geometry" />
        </mxCell>
        <mxCell id="4JpqzVYgigg34PEvqqd3-155" value="d152" style="rounded=0;whiteSpace=wrap;html=1;container=0;fillColor=#dae8fc;strokeColor=#6c8ebf;" vertex="1" parent="1">
          <mxGeometry x="1800" y="680" width="40" height="40" as="geometry" />
        </mxCell>
        <mxCell id="4JpqzVYgigg34PEvqqd3-156" value="d153" style="rounded=0;whiteSpace=wrap;html=1;container=0;" vertex="1" parent="1">
          <mxGeometry x="1160" y="720" width="40" height="40" as="geometry" />
        </mxCell>
        <mxCell id="4JpqzVYgigg34PEvqqd3-157" value="d154" style="rounded=0;whiteSpace=wrap;html=1;container=0;" vertex="1" parent="1">
          <mxGeometry x="1200" y="720" width="40" height="40" as="geometry" />
        </mxCell>
        <mxCell id="4JpqzVYgigg34PEvqqd3-158" value="d155" style="rounded=0;whiteSpace=wrap;html=1;container=0;" vertex="1" parent="1">
          <mxGeometry x="1240" y="720" width="40" height="40" as="geometry" />
        </mxCell>
        <mxCell id="4JpqzVYgigg34PEvqqd3-159" value="d156" style="rounded=0;whiteSpace=wrap;html=1;container=0;" vertex="1" parent="1">
          <mxGeometry x="1280" y="720" width="40" height="40" as="geometry" />
        </mxCell>
        <mxCell id="4JpqzVYgigg34PEvqqd3-160" value="d157" style="rounded=0;whiteSpace=wrap;html=1;container=0;" vertex="1" parent="1">
          <mxGeometry x="1320" y="720" width="40" height="40" as="geometry" />
        </mxCell>
        <mxCell id="4JpqzVYgigg34PEvqqd3-161" value="d158" style="rounded=0;whiteSpace=wrap;html=1;container=0;" vertex="1" parent="1">
          <mxGeometry x="1360" y="720" width="40" height="40" as="geometry" />
        </mxCell>
        <mxCell id="4JpqzVYgigg34PEvqqd3-162" value="d159" style="rounded=0;whiteSpace=wrap;html=1;container=0;" vertex="1" parent="1">
          <mxGeometry x="1400" y="720" width="40" height="40" as="geometry" />
        </mxCell>
        <mxCell id="4JpqzVYgigg34PEvqqd3-163" value="d160" style="rounded=0;whiteSpace=wrap;html=1;container=0;" vertex="1" parent="1">
          <mxGeometry x="1440" y="720" width="40" height="40" as="geometry" />
        </mxCell>
        <mxCell id="4JpqzVYgigg34PEvqqd3-164" value="d161" style="rounded=0;whiteSpace=wrap;html=1;container=0;fillColor=#dae8fc;strokeColor=#6c8ebf;" vertex="1" parent="1">
          <mxGeometry x="1480" y="720" width="40" height="40" as="geometry" />
        </mxCell>
        <mxCell id="4JpqzVYgigg34PEvqqd3-165" value="d162" style="rounded=0;whiteSpace=wrap;html=1;container=0;" vertex="1" parent="1">
          <mxGeometry x="1520" y="720" width="40" height="40" as="geometry" />
        </mxCell>
        <mxCell id="4JpqzVYgigg34PEvqqd3-166" value="d163" style="rounded=0;whiteSpace=wrap;html=1;container=0;" vertex="1" parent="1">
          <mxGeometry x="1560" y="720" width="40" height="40" as="geometry" />
        </mxCell>
        <mxCell id="4JpqzVYgigg34PEvqqd3-167" value="d164" style="rounded=0;whiteSpace=wrap;html=1;container=0;" vertex="1" parent="1">
          <mxGeometry x="1600" y="720" width="40" height="40" as="geometry" />
        </mxCell>
        <mxCell id="4JpqzVYgigg34PEvqqd3-168" value="d165" style="rounded=0;whiteSpace=wrap;html=1;container=0;" vertex="1" parent="1">
          <mxGeometry x="1640" y="720" width="40" height="40" as="geometry" />
        </mxCell>
        <mxCell id="4JpqzVYgigg34PEvqqd3-169" value="d166" style="rounded=0;whiteSpace=wrap;html=1;container=0;" vertex="1" parent="1">
          <mxGeometry x="1680" y="720" width="40" height="40" as="geometry" />
        </mxCell>
        <mxCell id="4JpqzVYgigg34PEvqqd3-170" value="d167" style="rounded=0;whiteSpace=wrap;html=1;container=0;" vertex="1" parent="1">
          <mxGeometry x="1720" y="720" width="40" height="40" as="geometry" />
        </mxCell>
        <mxCell id="4JpqzVYgigg34PEvqqd3-171" value="d168" style="rounded=0;whiteSpace=wrap;html=1;container=0;" vertex="1" parent="1">
          <mxGeometry x="1760" y="720" width="40" height="40" as="geometry" />
        </mxCell>
        <mxCell id="4JpqzVYgigg34PEvqqd3-172" value="d169" style="rounded=0;whiteSpace=wrap;html=1;container=0;" vertex="1" parent="1">
          <mxGeometry x="1800" y="720" width="40" height="40" as="geometry" />
        </mxCell>
        <mxCell id="4JpqzVYgigg34PEvqqd3-173" value="d170" style="rounded=0;whiteSpace=wrap;html=1;container=0;" vertex="1" parent="1">
          <mxGeometry x="1160" y="760" width="40" height="40" as="geometry" />
        </mxCell>
        <mxCell id="4JpqzVYgigg34PEvqqd3-174" value="d171" style="rounded=0;whiteSpace=wrap;html=1;container=0;" vertex="1" parent="1">
          <mxGeometry x="1200" y="760" width="40" height="40" as="geometry" />
        </mxCell>
        <mxCell id="4JpqzVYgigg34PEvqqd3-175" value="d172" style="rounded=0;whiteSpace=wrap;html=1;container=0;" vertex="1" parent="1">
          <mxGeometry x="1240" y="760" width="40" height="40" as="geometry" />
        </mxCell>
        <mxCell id="4JpqzVYgigg34PEvqqd3-176" value="d173" style="rounded=0;whiteSpace=wrap;html=1;container=0;" vertex="1" parent="1">
          <mxGeometry x="1280" y="760" width="40" height="40" as="geometry" />
        </mxCell>
        <mxCell id="4JpqzVYgigg34PEvqqd3-177" value="d174" style="rounded=0;whiteSpace=wrap;html=1;container=0;" vertex="1" parent="1">
          <mxGeometry x="1320" y="760" width="40" height="40" as="geometry" />
        </mxCell>
        <mxCell id="4JpqzVYgigg34PEvqqd3-178" value="d175" style="rounded=0;whiteSpace=wrap;html=1;container=0;" vertex="1" parent="1">
          <mxGeometry x="1360" y="760" width="40" height="40" as="geometry" />
        </mxCell>
        <mxCell id="4JpqzVYgigg34PEvqqd3-179" value="d176" style="rounded=0;whiteSpace=wrap;html=1;container=0;" vertex="1" parent="1">
          <mxGeometry x="1400" y="760" width="40" height="40" as="geometry" />
        </mxCell>
        <mxCell id="4JpqzVYgigg34PEvqqd3-180" value="d177" style="rounded=0;whiteSpace=wrap;html=1;container=0;" vertex="1" parent="1">
          <mxGeometry x="1440" y="760" width="40" height="40" as="geometry" />
        </mxCell>
        <mxCell id="4JpqzVYgigg34PEvqqd3-181" value="d178" style="rounded=0;whiteSpace=wrap;html=1;container=0;fillColor=#dae8fc;strokeColor=#6c8ebf;" vertex="1" parent="1">
          <mxGeometry x="1480" y="760" width="40" height="40" as="geometry" />
        </mxCell>
        <mxCell id="4JpqzVYgigg34PEvqqd3-182" value="d179" style="rounded=0;whiteSpace=wrap;html=1;container=0;" vertex="1" parent="1">
          <mxGeometry x="1520" y="760" width="40" height="40" as="geometry" />
        </mxCell>
        <mxCell id="4JpqzVYgigg34PEvqqd3-183" value="d180" style="rounded=0;whiteSpace=wrap;html=1;container=0;" vertex="1" parent="1">
          <mxGeometry x="1560" y="760" width="40" height="40" as="geometry" />
        </mxCell>
        <mxCell id="4JpqzVYgigg34PEvqqd3-184" value="d181" style="rounded=0;whiteSpace=wrap;html=1;container=0;" vertex="1" parent="1">
          <mxGeometry x="1600" y="760" width="40" height="40" as="geometry" />
        </mxCell>
        <mxCell id="4JpqzVYgigg34PEvqqd3-185" value="d182" style="rounded=0;whiteSpace=wrap;html=1;container=0;" vertex="1" parent="1">
          <mxGeometry x="1640" y="760" width="40" height="40" as="geometry" />
        </mxCell>
        <mxCell id="4JpqzVYgigg34PEvqqd3-186" value="d183" style="rounded=0;whiteSpace=wrap;html=1;container=0;" vertex="1" parent="1">
          <mxGeometry x="1680" y="760" width="40" height="40" as="geometry" />
        </mxCell>
        <mxCell id="4JpqzVYgigg34PEvqqd3-187" value="d184" style="rounded=0;whiteSpace=wrap;html=1;container=0;" vertex="1" parent="1">
          <mxGeometry x="1720" y="760" width="40" height="40" as="geometry" />
        </mxCell>
        <mxCell id="4JpqzVYgigg34PEvqqd3-188" value="d185" style="rounded=0;whiteSpace=wrap;html=1;container=0;" vertex="1" parent="1">
          <mxGeometry x="1760" y="760" width="40" height="40" as="geometry" />
        </mxCell>
        <mxCell id="4JpqzVYgigg34PEvqqd3-189" value="d186" style="rounded=0;whiteSpace=wrap;html=1;container=0;" vertex="1" parent="1">
          <mxGeometry x="1800" y="760" width="40" height="40" as="geometry" />
        </mxCell>
        <mxCell id="4JpqzVYgigg34PEvqqd3-190" value="d187" style="rounded=0;whiteSpace=wrap;html=1;container=0;" vertex="1" parent="1">
          <mxGeometry x="1160" y="800" width="40" height="40" as="geometry" />
        </mxCell>
        <mxCell id="4JpqzVYgigg34PEvqqd3-191" value="d188" style="rounded=0;whiteSpace=wrap;html=1;container=0;" vertex="1" parent="1">
          <mxGeometry x="1200" y="800" width="40" height="40" as="geometry" />
        </mxCell>
        <mxCell id="4JpqzVYgigg34PEvqqd3-192" value="d189" style="rounded=0;whiteSpace=wrap;html=1;container=0;" vertex="1" parent="1">
          <mxGeometry x="1240" y="800" width="40" height="40" as="geometry" />
        </mxCell>
        <mxCell id="4JpqzVYgigg34PEvqqd3-193" value="d190" style="rounded=0;whiteSpace=wrap;html=1;container=0;" vertex="1" parent="1">
          <mxGeometry x="1280" y="800" width="40" height="40" as="geometry" />
        </mxCell>
        <mxCell id="4JpqzVYgigg34PEvqqd3-194" value="d191" style="rounded=0;whiteSpace=wrap;html=1;container=0;" vertex="1" parent="1">
          <mxGeometry x="1320" y="800" width="40" height="40" as="geometry" />
        </mxCell>
        <mxCell id="4JpqzVYgigg34PEvqqd3-195" value="d192" style="rounded=0;whiteSpace=wrap;html=1;container=0;" vertex="1" parent="1">
          <mxGeometry x="1360" y="800" width="40" height="40" as="geometry" />
        </mxCell>
        <mxCell id="4JpqzVYgigg34PEvqqd3-196" value="d193" style="rounded=0;whiteSpace=wrap;html=1;container=0;" vertex="1" parent="1">
          <mxGeometry x="1400" y="800" width="40" height="40" as="geometry" />
        </mxCell>
        <mxCell id="4JpqzVYgigg34PEvqqd3-197" value="d194" style="rounded=0;whiteSpace=wrap;html=1;container=0;" vertex="1" parent="1">
          <mxGeometry x="1440" y="800" width="40" height="40" as="geometry" />
        </mxCell>
        <mxCell id="4JpqzVYgigg34PEvqqd3-198" value="d195" style="rounded=0;whiteSpace=wrap;html=1;container=0;fillColor=#dae8fc;strokeColor=#6c8ebf;" vertex="1" parent="1">
          <mxGeometry x="1480" y="800" width="40" height="40" as="geometry" />
        </mxCell>
        <mxCell id="4JpqzVYgigg34PEvqqd3-199" value="d196" style="rounded=0;whiteSpace=wrap;html=1;container=0;" vertex="1" parent="1">
          <mxGeometry x="1520" y="800" width="40" height="40" as="geometry" />
        </mxCell>
        <mxCell id="4JpqzVYgigg34PEvqqd3-200" value="d197" style="rounded=0;whiteSpace=wrap;html=1;container=0;" vertex="1" parent="1">
          <mxGeometry x="1560" y="800" width="40" height="40" as="geometry" />
        </mxCell>
        <mxCell id="4JpqzVYgigg34PEvqqd3-201" value="d198" style="rounded=0;whiteSpace=wrap;html=1;container=0;" vertex="1" parent="1">
          <mxGeometry x="1600" y="800" width="40" height="40" as="geometry" />
        </mxCell>
        <mxCell id="4JpqzVYgigg34PEvqqd3-202" value="d199" style="rounded=0;whiteSpace=wrap;html=1;container=0;" vertex="1" parent="1">
          <mxGeometry x="1640" y="800" width="40" height="40" as="geometry" />
        </mxCell>
        <mxCell id="4JpqzVYgigg34PEvqqd3-203" value="d200" style="rounded=0;whiteSpace=wrap;html=1;container=0;" vertex="1" parent="1">
          <mxGeometry x="1680" y="800" width="40" height="40" as="geometry" />
        </mxCell>
        <mxCell id="4JpqzVYgigg34PEvqqd3-204" value="d201" style="rounded=0;whiteSpace=wrap;html=1;container=0;" vertex="1" parent="1">
          <mxGeometry x="1720" y="800" width="40" height="40" as="geometry" />
        </mxCell>
        <mxCell id="4JpqzVYgigg34PEvqqd3-205" value="d202" style="rounded=0;whiteSpace=wrap;html=1;container=0;" vertex="1" parent="1">
          <mxGeometry x="1760" y="800" width="40" height="40" as="geometry" />
        </mxCell>
        <mxCell id="4JpqzVYgigg34PEvqqd3-206" value="d203" style="rounded=0;whiteSpace=wrap;html=1;container=0;" vertex="1" parent="1">
          <mxGeometry x="1800" y="800" width="40" height="40" as="geometry" />
        </mxCell>
        <mxCell id="4JpqzVYgigg34PEvqqd3-207" value="d204" style="rounded=0;whiteSpace=wrap;html=1;container=0;" vertex="1" parent="1">
          <mxGeometry x="1160" y="840" width="40" height="40" as="geometry" />
        </mxCell>
        <mxCell id="4JpqzVYgigg34PEvqqd3-208" value="d205" style="rounded=0;whiteSpace=wrap;html=1;container=0;" vertex="1" parent="1">
          <mxGeometry x="1200" y="840" width="40" height="40" as="geometry" />
        </mxCell>
        <mxCell id="4JpqzVYgigg34PEvqqd3-209" value="d206" style="rounded=0;whiteSpace=wrap;html=1;container=0;" vertex="1" parent="1">
          <mxGeometry x="1240" y="840" width="40" height="40" as="geometry" />
        </mxCell>
        <mxCell id="4JpqzVYgigg34PEvqqd3-210" value="d207" style="rounded=0;whiteSpace=wrap;html=1;container=0;" vertex="1" parent="1">
          <mxGeometry x="1280" y="840" width="40" height="40" as="geometry" />
        </mxCell>
        <mxCell id="4JpqzVYgigg34PEvqqd3-211" value="d208" style="rounded=0;whiteSpace=wrap;html=1;container=0;" vertex="1" parent="1">
          <mxGeometry x="1320" y="840" width="40" height="40" as="geometry" />
        </mxCell>
        <mxCell id="4JpqzVYgigg34PEvqqd3-212" value="d209" style="rounded=0;whiteSpace=wrap;html=1;container=0;" vertex="1" parent="1">
          <mxGeometry x="1360" y="840" width="40" height="40" as="geometry" />
        </mxCell>
        <mxCell id="4JpqzVYgigg34PEvqqd3-213" value="d210" style="rounded=0;whiteSpace=wrap;html=1;container=0;" vertex="1" parent="1">
          <mxGeometry x="1400" y="840" width="40" height="40" as="geometry" />
        </mxCell>
        <mxCell id="4JpqzVYgigg34PEvqqd3-214" value="d211" style="rounded=0;whiteSpace=wrap;html=1;container=0;" vertex="1" parent="1">
          <mxGeometry x="1440" y="840" width="40" height="40" as="geometry" />
        </mxCell>
        <mxCell id="4JpqzVYgigg34PEvqqd3-215" value="d212" style="rounded=0;whiteSpace=wrap;html=1;container=0;fillColor=#dae8fc;strokeColor=#6c8ebf;" vertex="1" parent="1">
          <mxGeometry x="1480" y="840" width="40" height="40" as="geometry" />
        </mxCell>
        <mxCell id="4JpqzVYgigg34PEvqqd3-216" value="d213" style="rounded=0;whiteSpace=wrap;html=1;container=0;" vertex="1" parent="1">
          <mxGeometry x="1520" y="840" width="40" height="40" as="geometry" />
        </mxCell>
        <mxCell id="4JpqzVYgigg34PEvqqd3-217" value="d214" style="rounded=0;whiteSpace=wrap;html=1;container=0;" vertex="1" parent="1">
          <mxGeometry x="1560" y="840" width="40" height="40" as="geometry" />
        </mxCell>
        <mxCell id="4JpqzVYgigg34PEvqqd3-218" value="d215" style="rounded=0;whiteSpace=wrap;html=1;container=0;" vertex="1" parent="1">
          <mxGeometry x="1600" y="840" width="40" height="40" as="geometry" />
        </mxCell>
        <mxCell id="4JpqzVYgigg34PEvqqd3-219" value="d216" style="rounded=0;whiteSpace=wrap;html=1;container=0;" vertex="1" parent="1">
          <mxGeometry x="1640" y="840" width="40" height="40" as="geometry" />
        </mxCell>
        <mxCell id="4JpqzVYgigg34PEvqqd3-220" value="d217" style="rounded=0;whiteSpace=wrap;html=1;container=0;" vertex="1" parent="1">
          <mxGeometry x="1680" y="840" width="40" height="40" as="geometry" />
        </mxCell>
        <mxCell id="4JpqzVYgigg34PEvqqd3-221" value="d218" style="rounded=0;whiteSpace=wrap;html=1;container=0;" vertex="1" parent="1">
          <mxGeometry x="1720" y="840" width="40" height="40" as="geometry" />
        </mxCell>
        <mxCell id="4JpqzVYgigg34PEvqqd3-222" value="d219" style="rounded=0;whiteSpace=wrap;html=1;container=0;" vertex="1" parent="1">
          <mxGeometry x="1760" y="840" width="40" height="40" as="geometry" />
        </mxCell>
        <mxCell id="4JpqzVYgigg34PEvqqd3-223" value="d220" style="rounded=0;whiteSpace=wrap;html=1;container=0;" vertex="1" parent="1">
          <mxGeometry x="1800" y="840" width="40" height="40" as="geometry" />
        </mxCell>
        <mxCell id="4JpqzVYgigg34PEvqqd3-224" value="d221" style="rounded=0;whiteSpace=wrap;html=1;container=0;" vertex="1" parent="1">
          <mxGeometry x="1160" y="880" width="40" height="40" as="geometry" />
        </mxCell>
        <mxCell id="4JpqzVYgigg34PEvqqd3-225" value="d222" style="rounded=0;whiteSpace=wrap;html=1;container=0;" vertex="1" parent="1">
          <mxGeometry x="1200" y="880" width="40" height="40" as="geometry" />
        </mxCell>
        <mxCell id="4JpqzVYgigg34PEvqqd3-226" value="d223" style="rounded=0;whiteSpace=wrap;html=1;container=0;" vertex="1" parent="1">
          <mxGeometry x="1240" y="880" width="40" height="40" as="geometry" />
        </mxCell>
        <mxCell id="4JpqzVYgigg34PEvqqd3-227" value="d224" style="rounded=0;whiteSpace=wrap;html=1;container=0;" vertex="1" parent="1">
          <mxGeometry x="1280" y="880" width="40" height="40" as="geometry" />
        </mxCell>
        <mxCell id="4JpqzVYgigg34PEvqqd3-228" value="d225" style="rounded=0;whiteSpace=wrap;html=1;container=0;" vertex="1" parent="1">
          <mxGeometry x="1320" y="880" width="40" height="40" as="geometry" />
        </mxCell>
        <mxCell id="4JpqzVYgigg34PEvqqd3-229" value="d226" style="rounded=0;whiteSpace=wrap;html=1;container=0;" vertex="1" parent="1">
          <mxGeometry x="1360" y="880" width="40" height="40" as="geometry" />
        </mxCell>
        <mxCell id="4JpqzVYgigg34PEvqqd3-230" value="d227" style="rounded=0;whiteSpace=wrap;html=1;container=0;" vertex="1" parent="1">
          <mxGeometry x="1400" y="880" width="40" height="40" as="geometry" />
        </mxCell>
        <mxCell id="4JpqzVYgigg34PEvqqd3-231" value="d228" style="rounded=0;whiteSpace=wrap;html=1;container=0;" vertex="1" parent="1">
          <mxGeometry x="1440" y="880" width="40" height="40" as="geometry" />
        </mxCell>
        <mxCell id="4JpqzVYgigg34PEvqqd3-232" value="d229" style="rounded=0;whiteSpace=wrap;html=1;container=0;fillColor=#dae8fc;strokeColor=#6c8ebf;" vertex="1" parent="1">
          <mxGeometry x="1480" y="880" width="40" height="40" as="geometry" />
        </mxCell>
        <mxCell id="4JpqzVYgigg34PEvqqd3-233" value="d230" style="rounded=0;whiteSpace=wrap;html=1;container=0;" vertex="1" parent="1">
          <mxGeometry x="1520" y="880" width="40" height="40" as="geometry" />
        </mxCell>
        <mxCell id="4JpqzVYgigg34PEvqqd3-234" value="d231" style="rounded=0;whiteSpace=wrap;html=1;container=0;" vertex="1" parent="1">
          <mxGeometry x="1560" y="880" width="40" height="40" as="geometry" />
        </mxCell>
        <mxCell id="4JpqzVYgigg34PEvqqd3-235" value="d232" style="rounded=0;whiteSpace=wrap;html=1;container=0;" vertex="1" parent="1">
          <mxGeometry x="1600" y="880" width="40" height="40" as="geometry" />
        </mxCell>
        <mxCell id="4JpqzVYgigg34PEvqqd3-236" value="d233" style="rounded=0;whiteSpace=wrap;html=1;container=0;" vertex="1" parent="1">
          <mxGeometry x="1640" y="880" width="40" height="40" as="geometry" />
        </mxCell>
        <mxCell id="4JpqzVYgigg34PEvqqd3-237" value="d234" style="rounded=0;whiteSpace=wrap;html=1;container=0;" vertex="1" parent="1">
          <mxGeometry x="1680" y="880" width="40" height="40" as="geometry" />
        </mxCell>
        <mxCell id="4JpqzVYgigg34PEvqqd3-238" value="d235" style="rounded=0;whiteSpace=wrap;html=1;container=0;" vertex="1" parent="1">
          <mxGeometry x="1720" y="880" width="40" height="40" as="geometry" />
        </mxCell>
        <mxCell id="4JpqzVYgigg34PEvqqd3-239" value="d236" style="rounded=0;whiteSpace=wrap;html=1;container=0;" vertex="1" parent="1">
          <mxGeometry x="1760" y="880" width="40" height="40" as="geometry" />
        </mxCell>
        <mxCell id="4JpqzVYgigg34PEvqqd3-240" value="d237" style="rounded=0;whiteSpace=wrap;html=1;container=0;" vertex="1" parent="1">
          <mxGeometry x="1800" y="880" width="40" height="40" as="geometry" />
        </mxCell>
        <mxCell id="4JpqzVYgigg34PEvqqd3-241" value="d238" style="rounded=0;whiteSpace=wrap;html=1;container=0;" vertex="1" parent="1">
          <mxGeometry x="1160" y="920" width="40" height="40" as="geometry" />
        </mxCell>
        <mxCell id="4JpqzVYgigg34PEvqqd3-242" value="d239" style="rounded=0;whiteSpace=wrap;html=1;container=0;" vertex="1" parent="1">
          <mxGeometry x="1200" y="920" width="40" height="40" as="geometry" />
        </mxCell>
        <mxCell id="4JpqzVYgigg34PEvqqd3-243" value="d240" style="rounded=0;whiteSpace=wrap;html=1;container=0;" vertex="1" parent="1">
          <mxGeometry x="1240" y="920" width="40" height="40" as="geometry" />
        </mxCell>
        <mxCell id="4JpqzVYgigg34PEvqqd3-244" value="d241" style="rounded=0;whiteSpace=wrap;html=1;container=0;" vertex="1" parent="1">
          <mxGeometry x="1280" y="920" width="40" height="40" as="geometry" />
        </mxCell>
        <mxCell id="4JpqzVYgigg34PEvqqd3-245" value="d242" style="rounded=0;whiteSpace=wrap;html=1;container=0;" vertex="1" parent="1">
          <mxGeometry x="1320" y="920" width="40" height="40" as="geometry" />
        </mxCell>
        <mxCell id="4JpqzVYgigg34PEvqqd3-246" value="d243" style="rounded=0;whiteSpace=wrap;html=1;container=0;" vertex="1" parent="1">
          <mxGeometry x="1360" y="920" width="40" height="40" as="geometry" />
        </mxCell>
        <mxCell id="4JpqzVYgigg34PEvqqd3-247" value="d244" style="rounded=0;whiteSpace=wrap;html=1;container=0;" vertex="1" parent="1">
          <mxGeometry x="1400" y="920" width="40" height="40" as="geometry" />
        </mxCell>
        <mxCell id="4JpqzVYgigg34PEvqqd3-248" value="d245" style="rounded=0;whiteSpace=wrap;html=1;container=0;" vertex="1" parent="1">
          <mxGeometry x="1440" y="920" width="40" height="40" as="geometry" />
        </mxCell>
        <mxCell id="4JpqzVYgigg34PEvqqd3-249" value="d246" style="rounded=0;whiteSpace=wrap;html=1;container=0;fillColor=#dae8fc;strokeColor=#6c8ebf;" vertex="1" parent="1">
          <mxGeometry x="1480" y="920" width="40" height="40" as="geometry" />
        </mxCell>
        <mxCell id="4JpqzVYgigg34PEvqqd3-250" value="d247" style="rounded=0;whiteSpace=wrap;html=1;container=0;" vertex="1" parent="1">
          <mxGeometry x="1520" y="920" width="40" height="40" as="geometry" />
        </mxCell>
        <mxCell id="4JpqzVYgigg34PEvqqd3-251" value="d248" style="rounded=0;whiteSpace=wrap;html=1;container=0;" vertex="1" parent="1">
          <mxGeometry x="1560" y="920" width="40" height="40" as="geometry" />
        </mxCell>
        <mxCell id="4JpqzVYgigg34PEvqqd3-252" value="d249" style="rounded=0;whiteSpace=wrap;html=1;container=0;" vertex="1" parent="1">
          <mxGeometry x="1600" y="920" width="40" height="40" as="geometry" />
        </mxCell>
        <mxCell id="4JpqzVYgigg34PEvqqd3-253" value="d250" style="rounded=0;whiteSpace=wrap;html=1;container=0;" vertex="1" parent="1">
          <mxGeometry x="1640" y="920" width="40" height="40" as="geometry" />
        </mxCell>
        <mxCell id="4JpqzVYgigg34PEvqqd3-254" value="d251" style="rounded=0;whiteSpace=wrap;html=1;container=0;" vertex="1" parent="1">
          <mxGeometry x="1680" y="920" width="40" height="40" as="geometry" />
        </mxCell>
        <mxCell id="4JpqzVYgigg34PEvqqd3-255" value="d252" style="rounded=0;whiteSpace=wrap;html=1;container=0;" vertex="1" parent="1">
          <mxGeometry x="1720" y="920" width="40" height="40" as="geometry" />
        </mxCell>
        <mxCell id="4JpqzVYgigg34PEvqqd3-256" value="d253" style="rounded=0;whiteSpace=wrap;html=1;container=0;" vertex="1" parent="1">
          <mxGeometry x="1760" y="920" width="40" height="40" as="geometry" />
        </mxCell>
        <mxCell id="4JpqzVYgigg34PEvqqd3-257" value="d254" style="rounded=0;whiteSpace=wrap;html=1;container=0;" vertex="1" parent="1">
          <mxGeometry x="1800" y="920" width="40" height="40" as="geometry" />
        </mxCell>
        <mxCell id="4JpqzVYgigg34PEvqqd3-258" value="d255" style="rounded=0;whiteSpace=wrap;html=1;container=0;" vertex="1" parent="1">
          <mxGeometry x="1160" y="960" width="40" height="40" as="geometry" />
        </mxCell>
        <mxCell id="4JpqzVYgigg34PEvqqd3-259" value="d256" style="rounded=0;whiteSpace=wrap;html=1;container=0;" vertex="1" parent="1">
          <mxGeometry x="1200" y="960" width="40" height="40" as="geometry" />
        </mxCell>
        <mxCell id="4JpqzVYgigg34PEvqqd3-260" value="d257" style="rounded=0;whiteSpace=wrap;html=1;container=0;" vertex="1" parent="1">
          <mxGeometry x="1240" y="960" width="40" height="40" as="geometry" />
        </mxCell>
        <mxCell id="4JpqzVYgigg34PEvqqd3-261" value="d258" style="rounded=0;whiteSpace=wrap;html=1;container=0;" vertex="1" parent="1">
          <mxGeometry x="1280" y="960" width="40" height="40" as="geometry" />
        </mxCell>
        <mxCell id="4JpqzVYgigg34PEvqqd3-262" value="d259" style="rounded=0;whiteSpace=wrap;html=1;container=0;" vertex="1" parent="1">
          <mxGeometry x="1320" y="960" width="40" height="40" as="geometry" />
        </mxCell>
        <mxCell id="4JpqzVYgigg34PEvqqd3-263" value="d260" style="rounded=0;whiteSpace=wrap;html=1;container=0;" vertex="1" parent="1">
          <mxGeometry x="1360" y="960" width="40" height="40" as="geometry" />
        </mxCell>
        <mxCell id="4JpqzVYgigg34PEvqqd3-264" value="d261" style="rounded=0;whiteSpace=wrap;html=1;container=0;" vertex="1" parent="1">
          <mxGeometry x="1400" y="960" width="40" height="40" as="geometry" />
        </mxCell>
        <mxCell id="4JpqzVYgigg34PEvqqd3-265" value="d262" style="rounded=0;whiteSpace=wrap;html=1;container=0;" vertex="1" parent="1">
          <mxGeometry x="1440" y="960" width="40" height="40" as="geometry" />
        </mxCell>
        <mxCell id="4JpqzVYgigg34PEvqqd3-266" value="d263" style="rounded=0;whiteSpace=wrap;html=1;container=0;fillColor=#dae8fc;strokeColor=#6c8ebf;" vertex="1" parent="1">
          <mxGeometry x="1480" y="960" width="40" height="40" as="geometry" />
        </mxCell>
        <mxCell id="4JpqzVYgigg34PEvqqd3-267" value="d264" style="rounded=0;whiteSpace=wrap;html=1;container=0;" vertex="1" parent="1">
          <mxGeometry x="1520" y="960" width="40" height="40" as="geometry" />
        </mxCell>
        <mxCell id="4JpqzVYgigg34PEvqqd3-268" value="d265" style="rounded=0;whiteSpace=wrap;html=1;container=0;" vertex="1" parent="1">
          <mxGeometry x="1560" y="960" width="40" height="40" as="geometry" />
        </mxCell>
        <mxCell id="4JpqzVYgigg34PEvqqd3-269" value="d266" style="rounded=0;whiteSpace=wrap;html=1;container=0;" vertex="1" parent="1">
          <mxGeometry x="1600" y="960" width="40" height="40" as="geometry" />
        </mxCell>
        <mxCell id="4JpqzVYgigg34PEvqqd3-270" value="d267" style="rounded=0;whiteSpace=wrap;html=1;container=0;" vertex="1" parent="1">
          <mxGeometry x="1640" y="960" width="40" height="40" as="geometry" />
        </mxCell>
        <mxCell id="4JpqzVYgigg34PEvqqd3-271" value="d268" style="rounded=0;whiteSpace=wrap;html=1;container=0;" vertex="1" parent="1">
          <mxGeometry x="1680" y="960" width="40" height="40" as="geometry" />
        </mxCell>
        <mxCell id="4JpqzVYgigg34PEvqqd3-272" value="d269" style="rounded=0;whiteSpace=wrap;html=1;container=0;" vertex="1" parent="1">
          <mxGeometry x="1720" y="960" width="40" height="40" as="geometry" />
        </mxCell>
        <mxCell id="4JpqzVYgigg34PEvqqd3-273" value="d270" style="rounded=0;whiteSpace=wrap;html=1;container=0;" vertex="1" parent="1">
          <mxGeometry x="1760" y="960" width="40" height="40" as="geometry" />
        </mxCell>
        <mxCell id="4JpqzVYgigg34PEvqqd3-274" value="d271" style="rounded=0;whiteSpace=wrap;html=1;container=0;" vertex="1" parent="1">
          <mxGeometry x="1800" y="960" width="40" height="40" as="geometry" />
        </mxCell>
        <mxCell id="4JpqzVYgigg34PEvqqd3-275" value="d272" style="rounded=0;whiteSpace=wrap;html=1;container=0;" vertex="1" parent="1">
          <mxGeometry x="1160" y="1000" width="40" height="40" as="geometry" />
        </mxCell>
        <mxCell id="4JpqzVYgigg34PEvqqd3-276" value="d274" style="rounded=0;whiteSpace=wrap;html=1;container=0;" vertex="1" parent="1">
          <mxGeometry x="1240" y="1000" width="40" height="40" as="geometry" />
        </mxCell>
        <mxCell id="4JpqzVYgigg34PEvqqd3-277" value="d275" style="rounded=0;whiteSpace=wrap;html=1;container=0;" vertex="1" parent="1">
          <mxGeometry x="1280" y="1000" width="40" height="40" as="geometry" />
        </mxCell>
        <mxCell id="4JpqzVYgigg34PEvqqd3-278" value="d276" style="rounded=0;whiteSpace=wrap;html=1;container=0;" vertex="1" parent="1">
          <mxGeometry x="1320" y="1000" width="40" height="40" as="geometry" />
        </mxCell>
        <mxCell id="4JpqzVYgigg34PEvqqd3-279" value="d277" style="rounded=0;whiteSpace=wrap;html=1;container=0;" vertex="1" parent="1">
          <mxGeometry x="1360" y="1000" width="40" height="40" as="geometry" />
        </mxCell>
        <mxCell id="4JpqzVYgigg34PEvqqd3-280" value="d278" style="rounded=0;whiteSpace=wrap;html=1;container=0;" vertex="1" parent="1">
          <mxGeometry x="1400" y="1000" width="40" height="40" as="geometry" />
        </mxCell>
        <mxCell id="4JpqzVYgigg34PEvqqd3-281" value="d279" style="rounded=0;whiteSpace=wrap;html=1;container=0;" vertex="1" parent="1">
          <mxGeometry x="1440" y="1000" width="40" height="40" as="geometry" />
        </mxCell>
        <mxCell id="4JpqzVYgigg34PEvqqd3-282" value="d280" style="rounded=0;whiteSpace=wrap;html=1;container=0;fillColor=#dae8fc;strokeColor=#6c8ebf;" vertex="1" parent="1">
          <mxGeometry x="1480" y="1000" width="40" height="40" as="geometry" />
        </mxCell>
        <mxCell id="4JpqzVYgigg34PEvqqd3-283" value="d281" style="rounded=0;whiteSpace=wrap;html=1;container=0;" vertex="1" parent="1">
          <mxGeometry x="1520" y="1000" width="40" height="40" as="geometry" />
        </mxCell>
        <mxCell id="4JpqzVYgigg34PEvqqd3-284" value="d282" style="rounded=0;whiteSpace=wrap;html=1;container=0;" vertex="1" parent="1">
          <mxGeometry x="1560" y="1000" width="40" height="40" as="geometry" />
        </mxCell>
        <mxCell id="4JpqzVYgigg34PEvqqd3-285" value="d283" style="rounded=0;whiteSpace=wrap;html=1;container=0;" vertex="1" parent="1">
          <mxGeometry x="1600" y="1000" width="40" height="40" as="geometry" />
        </mxCell>
        <mxCell id="4JpqzVYgigg34PEvqqd3-286" value="d284" style="rounded=0;whiteSpace=wrap;html=1;container=0;" vertex="1" parent="1">
          <mxGeometry x="1640" y="1000" width="40" height="40" as="geometry" />
        </mxCell>
        <mxCell id="4JpqzVYgigg34PEvqqd3-287" value="d285" style="rounded=0;whiteSpace=wrap;html=1;container=0;" vertex="1" parent="1">
          <mxGeometry x="1680" y="1000" width="40" height="40" as="geometry" />
        </mxCell>
        <mxCell id="4JpqzVYgigg34PEvqqd3-288" value="d286" style="rounded=0;whiteSpace=wrap;html=1;container=0;" vertex="1" parent="1">
          <mxGeometry x="1720" y="1000" width="40" height="40" as="geometry" />
        </mxCell>
        <mxCell id="4JpqzVYgigg34PEvqqd3-289" value="d287" style="rounded=0;whiteSpace=wrap;html=1;container=0;" vertex="1" parent="1">
          <mxGeometry x="1760" y="1000" width="40" height="40" as="geometry" />
        </mxCell>
        <mxCell id="4JpqzVYgigg34PEvqqd3-290" value="d288" style="rounded=0;whiteSpace=wrap;html=1;container=0;" vertex="1" parent="1">
          <mxGeometry x="1800" y="1000" width="40" height="40" as="geometry" />
        </mxCell>
        <mxCell id="4JpqzVYgigg34PEvqqd3-291" value="d273" style="rounded=0;whiteSpace=wrap;html=1;container=0;" vertex="1" parent="1">
          <mxGeometry x="1200" y="1000" width="40" height="40" as="geometry" />
        </mxCell>
        <mxCell id="4JpqzVYgigg34PEvqqd3-292" value="0" style="text;html=1;align=center;verticalAlign=middle;whiteSpace=wrap;rounded=0;" vertex="1" parent="1">
          <mxGeometry x="1100" y="685" width="60" height="30" as="geometry" />
        </mxCell>
        <mxCell id="4JpqzVYgigg34PEvqqd3-293" value="0" style="text;html=1;align=center;verticalAlign=middle;whiteSpace=wrap;rounded=0;" vertex="1" parent="1">
          <mxGeometry x="1470" y="330" width="60" height="30" as="geometry" />
        </mxCell>
      </root>
    </mxGraphModel>
  </diagram>
</mxfile>
